<svg xmlns="http://www.w3.org/2000/svg" viewBox="0 0 1440 900" role="img" aria-label="飞书文档资产库 (示例数据)">
  <defs>
    <style>
      .t{font-family:"Segoe UI","PingFang SC","Microsoft YaHei",sans-serif}
      .mut{fill:#8A968F} .dk{fill:#0F2A1C} .sub{fill:#5B6B62} .grn{fill:#00AA4F}
      .card{fill:#fff;stroke:#E6EBE8;stroke-width:1.5}
      .chip{fill:#E8F7EE}
    </style>
  </defs>
  <rect x="6" y="6" width="1428" height="888" rx="16" fill="#fff" stroke="#DDE3DF" stroke-width="1.5"/>
  <rect x="6" y="6" width="1428" height="44" rx="16" fill="#F3F6F4"/><rect x="6" y="34" width="1428" height="16" fill="#F3F6F4"/>
  <g><circle cx="34" cy="28" r="6" fill="#FF5F57"/><circle cx="56" cy="28" r="6" fill="#FEBC2E"/><circle cx="78" cy="28" r="6" fill="#28C840"/></g>
  <rect x="520" y="17" width="400" height="24" rx="12" fill="#E7ECE9"/>
  <text class="t mut" x="720" y="33" font-size="12" text-anchor="middle">127.0.0.1:8787 · 飞书文档</text>
  <rect x="7" y="50" width="1426" height="843" fill="#F4F7F5"/>

  <!-- sidebar -->
  <g transform="translate(7,50)">
    <rect width="248" height="843" fill="#FBFCFC" stroke="#EAEFEC" stroke-width="1.5"/>
    <rect x="22" y="22" width="40" height="40" rx="11" class="grn"/>
    <text class="t" x="42" y="48" font-size="20" font-weight="800" fill="#fff" text-anchor="middle">本</text>
    <text class="t dk" x="74" y="40" font-size="15" font-weight="800">本地 Agent 工作台</text>
    <text class="t mut" x="74" y="57" font-size="10" letter-spacing="1">LOCAL AGENT HUB · v5.4</text>
    <text class="t mut" x="24" y="96" font-size="11" letter-spacing="2">导航</text>
    <g class="t sub" font-size="13.5">
      <text x="30" y="128">⌂  工作台</text><text x="30" y="162">✧  任务场景</text><text x="30" y="196">≣  运行记录</text>
    </g>
    <rect x="14" y="212" width="220" height="34" rx="9" fill="#E8F7EE"/>
    <text class="t grn" x="30" y="234" font-size="13.5" font-weight="700">▤  飞书文档</text>
    <g class="t sub" font-size="13.5">
      <text x="30" y="272">▢  本地目录</text><text x="30" y="306">▦  历史总结</text><text x="30" y="340">⋔  组织架构</text>
    </g>
    <text class="t mut" x="24" y="380" font-size="11" letter-spacing="2">AGENTS</text>
    <g class="t" font-size="13">
      <g><circle cx="30" cy="406" r="5" fill="#22C55E"/><text class="dk" x="46" y="410">HTML 页面生成</text></g>
      <g><circle cx="30" cy="436" r="5" fill="#3B82F6"/><text class="dk" x="46" y="440">文档地图</text></g>
      <g><circle cx="30" cy="466" r="5" fill="#EC4899"/><text class="dk" x="46" y="470">摘要标签回填</text></g>
      <g><circle cx="30" cy="496" r="5" fill="#F59E0B"/><text class="dk" x="46" y="500">知识治理</text></g>
      <g><circle cx="30" cy="526" r="5" fill="#EAB308"/><text class="dk" x="46" y="530">多维表格分析</text></g>
      <g><circle cx="30" cy="556" r="5" fill="#8B5CF6"/><text class="dk" x="46" y="560">PDF 识别</text></g>
      <g><circle cx="30" cy="586" r="5" fill="#F97316"/><text class="dk" x="46" y="590">会议纪要</text></g>
      <g><circle cx="30" cy="616" r="5" fill="#EF4444"/><text class="dk" x="46" y="620">协作分发</text></g>
      <g><circle cx="30" cy="646" r="5" fill="#0EA5E9"/><text class="dk" x="46" y="650">自动化提炼</text></g>
    </g>
  </g>

  <!-- main -->
  <g transform="translate(255,50)">
    <rect width="1178" height="52" fill="#FBFCFC" stroke="#EAEFEC" stroke-width="1.5"/>
    <text class="t sub" x="36" y="32" font-size="13.5">☰   工作台  ›  飞书文档</text>

    <text class="t dk" x="36" y="96" font-size="24" font-weight="800">飞书文档</text>
    <rect x="640" y="74" width="320" height="34" rx="9" fill="#fff" stroke="#E0E6E2"/>
    <text class="t mut" x="656" y="96" font-size="12">🔍 搜索标题 / owner / 空间 / 摘要 / 标签…</text>
    <rect x="972" y="74" width="96" height="34" rx="9" fill="#fff" stroke="#E0E6E2"/><text class="t sub" x="1020" y="96" font-size="12.5" text-anchor="middle">⟳ 刷新索引</text>
    <rect x="1078" y="74" width="120" height="34" rx="9" class="grn"/><text class="t" x="1138" y="96" font-size="12.5" font-weight="700" fill="#fff" text-anchor="middle">✧ AI 摘要回填</text>

    <!-- type tabs -->
    <g transform="translate(36,124)" class="t" font-size="13">
      <rect x="0" y="0" width="70" height="30" rx="8" fill="#E8F7EE"/><text class="grn" x="35" y="20" text-anchor="middle" font-weight="700">全部 128</text>
      <text class="sub" x="92" y="20">文档 46</text>
      <text class="sub" x="168" y="20">会议纪要 18</text>
      <text class="sub" x="272" y="20">知识库 22</text>
      <text class="sub" x="360" y="20">多维表格 9</text>
      <text class="sub" x="456" y="20">电子表格 12</text>
      <text class="sub" x="560" y="20">幻灯片 3</text>
      <text class="sub" x="644" y="20">文件 12</text>
      <text class="sub" x="720" y="20">PDF 6</text>
    </g>
    <!-- filters -->
    <g transform="translate(36,168)" class="t" font-size="12.5">
      <text class="sub" x="0" y="20">AI 分类</text>
      <rect x="56" y="2" width="150" height="30" rx="8" fill="#fff" stroke="#E0E6E2"/><text class="sub" x="68" y="22">全部</text><text class="mut" x="192" y="22">▾</text>
      <text class="sub" x="228" y="20">所属空间</text>
      <rect x="292" y="2" width="180" height="30" rx="8" fill="#fff" stroke="#E0E6E2"/><text class="sub" x="304" y="22">全部</text><text class="mut" x="458" y="22">▾</text>
      <text class="sub" x="496" y="20">负责人</text>
      <rect x="548" y="2" width="170" height="30" rx="8" fill="#fff" stroke="#E0E6E2"/><text class="sub" x="560" y="22">全部</text><text class="mut" x="704" y="22">▾</text>
      <text class="mut" x="736" y="20">· 共 128 条</text>
    </g>

    <!-- table -->
    <g transform="translate(36,214)" class="t">
      <rect class="card" width="1106" height="586" rx="14"/>
      <g class="mut" font-size="12"><text x="72" y="32">标题</text><text x="640" y="32">类型</text><text x="740" y="32">所属空间</text><text x="850" y="32">负责人</text><text x="980" y="32">更新</text><text x="1070" y="32">操作</text></g>
      <line x1="16" y1="44" x2="1090" y2="44" stroke="#EEF2F0"/>

      <!-- rows: each ~132 high -->
      <!-- row 1 -->
      <g transform="translate(0,58)">
        <rect x="24" y="0" width="18" height="18" rx="4" fill="#fff" stroke="#CBD3CE"/>
        <text class="dk" x="72" y="14" font-size="14" font-weight="700">示例产品需求文档 v2</text>
        <text class="sub" x="72" y="34" font-size="12">记录示例产品的需求与迭代计划。</text>
        <g font-size="10.5"><rect x="72" y="44" width="52" height="20" rx="6" class="chip"/><text class="grn" x="98" y="58" text-anchor="middle">需求</text>
          <rect x="130" y="44" width="52" height="20" rx="6" class="chip"/><text class="grn" x="156" y="58" text-anchor="middle">规划</text></g>
        <text class="mut" x="72" y="82" font-size="11" font-family="monospace">Aa1b2c3dEf4g5h6i</text>
        <rect x="632" y="4" width="70" height="22" rx="6" fill="#EEF2FF"/><text x="667" y="19" font-size="10.5" font-weight="700" fill="#4F46E5" text-anchor="middle">DOCX</text>
        <text class="sub" x="740" y="18" font-size="12">产品管理</text>
        <text class="dk" x="850" y="18" font-size="12.5">Alex</text>
        <text class="mut" x="980" y="18" font-size="11.5">今天 15:51</text>
        <rect x="1058" y="4" width="80" height="26" rx="7" fill="#F3F6F4"/><text class="sub" x="1098" y="21" font-size="11.5" text-anchor="middle">📄 生成 HTML</text>
      </g>
      <line x1="16" y1="164" x2="1090" y2="164" stroke="#F1F4F2"/>
      <!-- row 2 -->
      <g transform="translate(0,190)">
        <rect x="24" y="0" width="18" height="18" rx="4" fill="#fff" stroke="#CBD3CE"/>
        <text class="dk" x="72" y="14" font-size="14" font-weight="700">Q3 运营数据看板</text>
        <text class="sub" x="72" y="34" font-size="12">示例运营指标的看板与台账。</text>
        <g font-size="10.5"><rect x="72" y="44" width="52" height="20" rx="6" class="chip"/><text class="grn" x="98" y="58" text-anchor="middle">运营</text>
          <rect x="130" y="44" width="52" height="20" rx="6" class="chip"/><text class="grn" x="156" y="58" text-anchor="middle">指标</text></g>
        <text class="mut" x="72" y="82" font-size="11" font-family="monospace">Bb2c3d4eFg5h6i7j</text>
        <rect x="632" y="4" width="76" height="22" rx="6" fill="#E7F6EE"/><text x="670" y="19" font-size="10.5" font-weight="700" fill="#059669" text-anchor="middle">BITABLE</text>
        <text class="sub" x="740" y="18" font-size="12">运营</text>
        <text class="dk" x="850" y="18" font-size="12.5">Blair</text>
        <text class="mut" x="980" y="18" font-size="11.5">今天 15:47</text>
        <rect x="1002" y="4" width="52" height="26" rx="7" fill="#E8F7EE"/><text class="grn" x="1028" y="21" font-size="11.5" text-anchor="middle">分析</text>
        <rect x="1058" y="4" width="80" height="26" rx="7" fill="#F3F6F4"/><text class="sub" x="1098" y="21" font-size="11.5" text-anchor="middle">📄 生成 HTML</text>
      </g>
      <line x1="16" y1="296" x2="1090" y2="296" stroke="#F1F4F2"/>
      <!-- row 3 -->
      <g transform="translate(0,322)">
        <rect x="24" y="0" width="18" height="18" rx="4" fill="#fff" stroke="#CBD3CE"/>
        <text class="dk" x="72" y="14" font-size="14" font-weight="700">新人入职指南</text>
        <text class="sub" x="72" y="34" font-size="12">示例知识库：入职流程与常见问题。</text>
        <g font-size="10.5"><rect x="72" y="44" width="52" height="20" rx="6" class="chip"/><text class="grn" x="98" y="58" text-anchor="middle">入职</text>
          <rect x="130" y="44" width="52" height="20" rx="6" class="chip"/><text class="grn" x="156" y="58" text-anchor="middle">FAQ</text></g>
        <text class="mut" x="72" y="82" font-size="11" font-family="monospace">Cc3d4e5fGh6i7j8k</text>
        <rect x="632" y="4" width="60" height="22" rx="6" fill="#F3EEFF"/><text x="662" y="19" font-size="10.5" font-weight="700" fill="#7C3AED" text-anchor="middle">WIKI</text>
        <text class="sub" x="740" y="18" font-size="12">人事</text>
        <text class="dk" x="850" y="18" font-size="12.5">Casey</text>
        <text class="mut" x="980" y="18" font-size="11.5">今天 15:45</text>
        <rect x="1058" y="4" width="80" height="26" rx="7" fill="#F3F6F4"/><text class="sub" x="1098" y="21" font-size="11.5" text-anchor="middle">📄 生成 HTML</text>
      </g>
      <line x1="16" y1="428" x2="1090" y2="428" stroke="#F1F4F2"/>
      <!-- row 4 -->
      <g transform="translate(0,454)">
        <rect x="24" y="0" width="18" height="18" rx="4" fill="#fff" stroke="#CBD3CE"/>
        <text class="dk" x="72" y="14" font-size="14" font-weight="700">周会纪要（示例）</text>
        <text class="sub" x="72" y="34" font-size="12">示例团队周会的要点与待办。</text>
        <g font-size="10.5"><rect x="72" y="44" width="52" height="20" rx="6" class="chip"/><text class="grn" x="98" y="58" text-anchor="middle">会议</text></g>
        <text class="mut" x="72" y="82" font-size="11" font-family="monospace">Dd4e5f6gHi7j8k9l</text>
        <rect x="632" y="4" width="80" height="22" rx="6" fill="#FFF1E6"/><text x="672" y="19" font-size="10.5" font-weight="700" fill="#EA580C" text-anchor="middle">MEETING</text>
        <text class="sub" x="740" y="18" font-size="12">—</text>
        <text class="dk" x="850" y="18" font-size="12.5">Dana</text>
        <text class="mut" x="980" y="18" font-size="11.5">今天 14:12</text>
        <rect x="1058" y="4" width="80" height="26" rx="7" fill="#F3F6F4"/><text class="sub" x="1098" y="21" font-size="11.5" text-anchor="middle">📄 生成 HTML</text>
      </g>
    </g>
  </g>
</svg>
